{
  "asset": {
    "generator": "Khronos glTF Blender I/O v1.2.75",
    "version": "2.0"
  },
  "scene": 0,
  "scenes": [
    {
      "name": "Scene",
      "nodes": [
        0
      ]
    }
  ],
  "nodes": [
    {
      "mesh": 0,
      "name": "Cube.004",
      "scale": [
        0.5,
        0.5,
        0.5
      ],
      "translation": [
        7.67926025390625,
        -5.592729568481445,
        26.37653923034668
      ]
    }
  ],
  "materials": [
    {
      "doubleSided": true,
      "emissiveFactor": [
        0,
        0,
        0
      ],
      "name": "Material.001",
      "pbrMetallicRoughness": {
        "baseColorTexture": {
          "index": 0,
          "texCoord": 0
        },
        "metallicFactor": 0,
        "roughnessFactor": 1
      }
    }
  ],
  "meshes": [
    {
      "name": "Cube.008",
      "primitives": [
        {
          "attributes": {
            "POSITION": 0,
            "NORMAL": 1,
            "TEXCOORD_0": 2
          },
          "indices": 3,
          "material": 0
        }
      ]
    }
  ],
  "textures": [
    {
      "source": 0
    }
  ],
  "images": [
    {
      "name": "bluegrid3",
      "uri": "collision-world_img0.png"
    }
  ],
  "accessors": [
    {
      "bufferView": 0,
      "componentType": 5126,
      "count": 2478,
      "max": [
        22.94970703125,
        22.577617645263672,
        -12.29030990600586
      ],
      "min": [
        -45.76599884033203,
        5.377490997314453,
        -81.00601959228516
      ],
      "type": "VEC3"
    },
    {
      "bufferView": 1,
      "componentType": 5126,
      "count": 2478,
      "type": "VEC3"
    },
    {
      "bufferView": 2,
      "componentType": 5126,
      "count": 2478,
      "type": "VEC2"
    },
    {
      "bufferView": 3,
      "componentType": 5123,
      "count": 5262,
      "type": "SCALAR"
    }
  ],
  "bufferViews": [
    {
      "buffer": 0,
      "byteLength": 29736,
      "byteOffset": 0
    },
    {
      "buffer": 0,
      "byteLength": 29736,
      "byteOffset": 29736
    },
    {
      "buffer": 0,
      "byteLength": 19824,
      "byteOffset": 59472
    },
    {
      "buffer": 0,
      "byteLength": 10524,
      "byteOffset": 79296
    }
  ],
  "buffers": [
    {
      "uri": "collision-world_data.bin",
      "byteLength": 89820
    }
  ]
}